<svg width="14" height="14" viewBox="0 0 14 14" fill="none" xmlns="http://www.w3.org/2000/svg">
<g clip-path="url(#clip0_30_111)">
<path d="M10.7188 0H3.28125C1.46907 0 0 1.46907 0 3.28125V10.7188C0 12.5309 1.46907 14 3.28125 14H10.7188C12.5309 14 14 12.5309 14 10.7188V3.28125C14 1.46907 12.5309 0 10.7188 0Z" fill="url(#paint0_radial_30_111)"/>
<path d="M10.7188 0H3.28125C1.46907 0 0 1.46907 0 3.28125V10.7188C0 12.5309 1.46907 14 3.28125 14H10.7188C12.5309 14 14 12.5309 14 10.7188V3.28125C14 1.46907 12.5309 0 10.7188 0Z" fill="url(#paint1_radial_30_111)"/>
<path d="M7.00049 1.53125C5.51529 1.53125 5.32886 1.53776 4.74556 1.56428C4.16336 1.59097 3.76595 1.68312 3.41824 1.81836C3.05851 1.95803 2.75341 2.1449 2.44945 2.44896C2.14523 2.75297 1.95836 3.05807 1.81825 3.41764C1.68263 3.76545 1.59037 4.16303 1.56417 4.74496C1.53809 5.32831 1.53125 5.5148 1.53125 7.00005C1.53125 8.48531 1.53781 8.67114 1.56428 9.25444C1.59108 9.83664 1.68323 10.2341 1.81836 10.5818C1.95814 10.9415 2.14501 11.2466 2.44907 11.5505C2.75297 11.8548 3.05807 12.0421 3.41753 12.1817C3.76551 12.317 4.16298 12.4091 4.74507 12.4358C5.32842 12.4623 5.51469 12.4689 6.99984 12.4689C8.4852 12.4689 8.67103 12.4623 9.25433 12.4358C9.83653 12.4091 10.2344 12.317 10.5824 12.1817C10.9419 12.0421 11.2466 11.8548 11.5504 11.5505C11.8547 11.2466 12.0415 10.9415 12.1816 10.5819C12.3161 10.2341 12.4084 9.83653 12.4357 9.25455C12.4619 8.67125 12.4688 8.48531 12.4688 7.00005C12.4688 5.5148 12.4619 5.32842 12.4357 4.74507C12.4084 4.16287 12.3161 3.76551 12.1816 3.4178C12.0415 3.05807 11.8547 2.75297 11.5504 2.44896C11.2463 2.14479 10.942 1.95792 10.582 1.81841C10.2334 1.68312 9.83576 1.59091 9.25356 1.56428C8.67021 1.53776 8.48449 1.53125 6.9988 1.53125H7.00049ZM6.50989 2.51677C6.65552 2.51655 6.818 2.51677 7.00049 2.51677C8.4607 2.51677 8.63373 2.52202 9.21036 2.54822C9.74356 2.57261 10.033 2.6617 10.2257 2.73656C10.481 2.83566 10.6629 2.95416 10.8542 3.14562C11.0456 3.33703 11.1641 3.5193 11.2634 3.77453C11.3383 3.96703 11.4275 4.25644 11.4518 4.78964C11.478 5.36616 11.4837 5.5393 11.4837 6.9988C11.4837 8.4583 11.478 8.63149 11.4518 9.20795C11.4274 9.74115 11.3383 10.0306 11.2634 10.2231C11.1643 10.4783 11.0456 10.6601 10.8542 10.8514C10.6628 11.0428 10.4811 11.1612 10.2257 11.2604C10.0332 11.3356 9.74356 11.4244 9.21036 11.4488C8.63384 11.475 8.4607 11.4807 7.00049 11.4807C5.54023 11.4807 5.36714 11.475 4.79068 11.4488C4.25748 11.4242 3.96807 11.3351 3.77513 11.2603C3.51996 11.1611 3.33763 11.0427 3.14623 10.8513C2.95482 10.6599 2.83637 10.478 2.737 10.2227C2.66213 10.0301 2.57294 9.74072 2.54866 9.20751C2.52246 8.631 2.51721 8.45786 2.51721 6.99743C2.51721 5.53705 2.52246 5.36479 2.54866 4.78827C2.57305 4.25507 2.66213 3.96566 2.737 3.77289C2.83615 3.51766 2.95482 3.33539 3.14628 3.14398C3.33769 2.95258 3.51996 2.83407 3.77519 2.73476C3.96796 2.65956 4.25748 2.5707 4.79068 2.5462C5.29517 2.52339 5.49068 2.51655 6.50989 2.51541V2.51677ZM9.91971 3.4248C9.55741 3.4248 9.26346 3.71848 9.26346 4.08084C9.26346 4.44314 9.55741 4.73709 9.91971 4.73709C10.282 4.73709 10.576 4.44314 10.576 4.08084C10.576 3.71853 10.282 3.42459 9.91971 3.42459V3.4248ZM7.00049 4.19158C5.44955 4.19158 4.19207 5.44906 4.19207 7.00005C4.19207 8.55105 5.44955 9.80793 7.00049 9.80793C8.55148 9.80793 9.80853 8.55105 9.80853 7.00005C9.80853 5.44912 8.55138 4.19158 7.00038 4.19158H7.00049ZM7.00049 5.1771C8.00723 5.1771 8.82345 5.9932 8.82345 7.00005C8.82345 8.0068 8.00723 8.82301 7.00049 8.82301C5.9937 8.82301 5.17759 8.0068 5.17759 7.00005C5.17759 5.9932 5.9937 5.1771 7.00049 5.1771Z" fill="white"/>
</g>
<defs>
<radialGradient id="paint0_radial_30_111" cx="0" cy="0" r="1" gradientUnits="userSpaceOnUse" gradientTransform="translate(3.71875 15.0783) rotate(-90) scale(13.875 12.9049)">
<stop stop-color="#FFDD55"/>
<stop offset="0.1" stop-color="#FFDD55"/>
<stop offset="0.5" stop-color="#FF543E"/>
<stop offset="1" stop-color="#C837AB"/>
</radialGradient>
<radialGradient id="paint1_radial_30_111" cx="0" cy="0" r="1" gradientUnits="userSpaceOnUse" gradientTransform="translate(-2.34505 1.00849) rotate(78.681) scale(6.20222 25.5657)">
<stop stop-color="#3771C8"/>
<stop offset="0.128" stop-color="#3771C8"/>
<stop offset="1" stop-color="#6600FF" stop-opacity="0"/>
</radialGradient>
<clipPath id="clip0_30_111">
<rect width="14" height="14" fill="white"/>
</clipPath>
</defs>
</svg>
